<svg viewBox="0 0 704 704" fill="none" xmlns="http://www.w3.org/2000/svg">
<path d="M616 297H550C541.248 297 532.854 300.477 526.665 306.665C520.477 312.854 517 321.248 517 330C517 338.752 520.477 347.146 526.665 353.334C532.854 359.523 541.248 363 550 363H580.525C573.386 412.321 550.488 458.011 515.249 493.249C480.011 528.488 434.321 551.386 385 558.525V269.225C407.018 261.44 425.575 246.123 437.392 225.979C449.208 205.836 453.523 182.163 449.574 159.146C445.625 136.128 433.666 115.248 415.811 100.196C397.956 85.1428 375.354 76.8869 352 76.8869C328.646 76.8869 306.044 85.1428 288.189 100.196C270.334 115.248 258.375 136.128 254.426 159.146C250.477 182.163 254.792 205.836 266.608 225.979C278.425 246.123 296.982 261.44 319 269.225V558.525C269.679 551.386 223.989 528.488 188.751 493.249C153.512 458.011 130.614 412.321 123.475 363H154C162.752 363 171.146 359.523 177.335 353.334C183.523 347.146 187 338.752 187 330C187 321.248 183.523 312.854 177.335 306.665C171.146 300.477 162.752 297 154 297H88C79.2479 297 70.8542 300.477 64.6655 306.665C58.4768 312.854 55 321.248 55 330C55 408.769 86.291 484.312 141.989 540.011C197.688 595.709 273.231 627 352 627C430.769 627 506.312 595.709 562.011 540.011C617.709 484.312 649 408.769 649 330C649 321.248 645.523 312.854 639.335 306.665C633.146 300.477 624.752 297 616 297V297ZM352 143C358.527 143 364.907 144.935 370.334 148.562C375.761 152.188 379.99 157.341 382.488 163.371C384.986 169.401 385.639 176.037 384.366 182.438C383.093 188.839 379.95 194.719 375.335 199.335C370.719 203.95 364.839 207.093 358.438 208.366C352.037 209.639 345.401 208.986 339.371 206.488C333.341 203.99 328.188 199.761 324.561 194.334C320.935 188.907 319 182.527 319 176C319 167.248 322.477 158.854 328.665 152.665C334.854 146.477 343.248 143 352 143Z" fill="#FF9400"/>
</svg>
