<svg viewBox="0 0 649 649" fill="none" xmlns="http://www.w3.org/2000/svg">
<g clip-path="url(#clip0_284_16)">
<path d="M607.01 317.159C621.476 336.081 621.476 361.625 607.01 380.516C561.446 439.996 452.129 562.467 324.501 562.467C196.873 562.467 87.5554 439.996 41.9914 380.516C34.9533 371.456 31.1328 360.31 31.1328 348.837C31.1328 337.365 34.9533 326.219 41.9914 317.159C87.5554 257.679 196.873 135.208 324.501 135.208C452.129 135.208 561.446 257.679 607.01 317.159V317.159Z" stroke="#00DA35" stroke-width="66" stroke-linecap="round" stroke-linejoin="round"/>
<path d="M324.501 440.393C375.065 440.393 416.056 399.402 416.056 348.837C416.056 298.273 375.065 257.282 324.501 257.282C273.936 257.282 232.945 298.273 232.945 348.837C232.945 399.402 273.936 440.393 324.501 440.393Z" stroke="#00DA35" stroke-width="66" stroke-linecap="round" stroke-linejoin="round"/>
</g>
<defs>
<clipPath id="clip0_284_16">
<rect width="649" height="649" fill="none"/>
</clipPath>
</defs>
</svg>
