<svg viewBox="0 0 649 649" fill="none" xmlns="http://www.w3.org/2000/svg">
<path d="M486.75 211.331V416.496C471.284 407.567 453.304 403.99 435.598 406.321C417.893 408.652 401.451 416.76 388.823 429.388C376.195 442.016 368.087 458.458 365.757 476.164C363.426 493.87 367.002 511.85 375.932 527.315C384.861 542.781 398.644 554.868 415.144 561.702C431.643 568.536 449.936 569.735 467.186 565.112C484.436 560.49 499.678 550.305 510.549 536.136C521.421 521.968 527.313 504.608 527.313 486.75V78.1234C527.319 72.9167 526.072 67.7849 523.677 63.1615C521.283 58.5381 517.811 54.5587 513.555 51.5595C509.298 48.5604 504.383 46.6294 499.224 45.9296C494.064 45.2299 488.812 45.782 483.911 47.5393L224.311 140.265C218.017 142.522 212.575 146.667 208.727 152.134C204.879 157.601 202.813 164.123 202.813 170.809V457.018C187.348 448.089 169.37 444.513 151.666 446.842C133.962 449.172 117.521 457.278 104.893 469.903C92.2647 482.528 84.155 498.967 81.821 516.671C79.4871 534.374 83.0595 552.353 91.9842 567.82C100.909 583.286 114.687 595.376 131.183 602.215C147.678 609.053 165.969 610.258 183.219 605.642C200.469 601.027 215.714 590.849 226.59 576.687C237.467 562.524 243.367 545.169 243.375 527.313V298.256L486.75 211.371V211.331Z" fill="#00BCFF"/>
</svg>
