<svg viewBox="0 0 704 704" fill="none" xmlns="http://www.w3.org/2000/svg">
<g clip-path="url(#clip0_284_21)">
<path d="M289.981 368.971L95.6375 563.314C86.2645 572.687 71.0685 572.687 61.6965 563.314L39.0285 540.647C29.6715 531.29 29.6535 516.125 38.9885 506.746L193.011 352L38.9895 197.255C29.6545 187.876 29.6725 172.711 39.0295 163.354L61.6965 140.687C71.0695 131.314 86.2655 131.314 95.6375 140.687L289.981 335.03C299.354 344.402 299.354 359.598 289.981 368.971ZM672 552V520C672 506.745 661.255 496 648 496H344C330.745 496 320 506.745 320 520V552C320 565.255 330.745 576 344 576H648C661.255 576 672 565.255 672 552Z" fill="#06B335"/>
</g>
<defs>
<clipPath id="clip0_284_21">
<rect width="640" height="512" fill="white" transform="translate(32 96)"/>
</clipPath>
</defs>
</svg>
